<svg width="389" height="214" viewBox="0 0 389 214" fill="none" xmlns="http://www.w3.org/2000/svg">
<path d="M3.73145 169.164H12.5293C12.8417 169.164 13.1374 169.315 13.3171 169.569L31.6702 195.351C32.2147 196.116 33.4253 195.734 33.4253 194.795V170.127C33.4253 169.596 33.8593 169.164 34.3927 169.164H41.488C42.0214 169.164 42.4554 169.596 42.4554 170.127V210.177C42.4554 210.708 42.0214 211.141 41.488 211.141H32.6956C32.3805 211.141 32.0848 210.986 31.9023 210.728L13.5548 184.543C13.013 183.773 11.7969 184.152 11.7969 185.094V210.177C11.7969 210.708 11.3629 211.141 10.8295 211.141H3.73145C3.19799 211.141 2.76404 210.708 2.76404 210.177V170.127C2.76404 169.596 3.19799 169.164 3.73145 169.164Z" fill="url(#paint0_linear_3446_59)"/>
<path d="M67.4504 169.164H97.6695C98.2029 169.164 98.6369 169.596 98.6369 170.127V175.381C98.6369 175.912 98.2029 176.344 97.6695 176.344H77.5833C77.0499 176.344 76.6159 176.776 76.6159 177.308V185.019C76.6159 185.551 77.0499 185.983 77.5833 185.983H95.5274C96.0608 185.983 96.4948 186.415 96.4948 186.946V192.2C96.4948 192.731 96.0608 193.163 95.5274 193.163H77.5833C77.0499 193.163 76.6159 193.595 76.6159 194.126V203.002C76.6159 203.533 77.0499 203.965 77.5833 203.965H98.319C98.8525 203.965 99.2864 204.398 99.2864 204.929V210.183C99.2864 210.714 98.8525 211.146 98.319 211.146H67.4504C66.917 211.146 66.483 210.714 66.483 210.183V170.133C66.483 169.602 66.917 169.169 67.4504 169.169V169.164Z" fill="url(#paint1_linear_3446_59)"/>
<path d="M129.821 176.342H118.762C118.228 176.342 117.794 175.91 117.794 175.378V170.124C117.794 169.593 118.228 169.161 118.762 169.161H152.878C153.411 169.161 153.845 169.593 153.845 170.124V175.378C153.845 175.91 153.411 176.342 152.878 176.342H141.886C141.352 176.342 140.918 176.774 140.918 177.305V210.177C140.918 210.708 140.484 211.14 139.951 211.14H131.75C131.216 211.14 130.782 210.708 130.782 210.177V177.305C130.782 176.774 130.348 176.342 129.815 176.342H129.821Z" fill="url(#paint2_linear_3446_59)"/>
<path d="M171.914 169.164H180.383C180.819 169.164 181.204 169.458 181.317 169.879L188.376 196.323C188.631 197.275 189.99 197.275 190.245 196.323L197.304 169.879C197.417 169.458 197.799 169.164 198.238 169.164H206.185C206.616 169.164 206.995 169.447 207.114 169.86L214.745 196.339C215.019 197.289 216.376 197.261 216.614 196.303L223.103 169.896C223.208 169.467 223.595 169.164 224.043 169.164H232.225C232.88 169.164 233.344 169.8 233.145 170.419L220.254 210.469C220.127 210.868 219.753 211.138 219.333 211.138H210.781C210.342 211.138 209.958 210.843 209.847 210.419L202.901 184.152C202.65 183.2 201.293 183.195 201.036 184.144L193.863 210.428C193.75 210.846 193.365 211.138 192.931 211.138H184.38C183.957 211.138 183.581 210.862 183.456 210.461L170.999 170.411C170.805 169.791 171.27 169.164 171.922 169.164H171.914Z" fill="url(#paint3_linear_3446_59)"/>
<path d="M254.514 169.164H262.715C263.248 169.164 263.682 169.596 263.682 170.127V210.177C263.682 210.708 263.248 211.14 262.715 211.14H254.514C253.98 211.14 253.546 210.708 253.546 210.177V170.127C253.546 169.596 253.98 169.164 254.514 169.164Z" fill="url(#paint4_linear_3446_59)"/>
<path d="M287.712 170.124C287.712 169.593 288.146 169.161 288.68 169.161H306.679C312.307 169.161 316.378 169.841 318.891 171.198C321.4 172.555 322.658 174.831 322.658 178.021V185.394C322.658 187.851 321.782 189.781 320.027 191.182C318.581 192.337 316.746 193.147 314.523 193.614C313.841 193.758 313.523 194.542 313.924 195.112L324.184 209.621C324.634 210.26 324.175 211.138 323.393 211.138H314.081C313.758 211.138 313.457 210.978 313.277 210.708L302.81 195.073C302.63 194.806 302.329 194.644 302.005 194.644H298.813C298.279 194.644 297.845 195.076 297.845 195.607V210.174C297.845 210.706 297.411 211.138 296.878 211.138H288.677C288.144 211.138 287.71 210.706 287.71 210.174V170.124H287.712ZM306.549 187.983C308.929 187.983 310.554 187.672 311.419 187.045C312.285 186.42 312.719 185.201 312.719 183.39V180.415C312.719 178.863 312.251 177.795 311.323 177.214C310.391 176.633 308.799 176.342 306.549 176.342H298.813C298.279 176.342 297.845 176.774 297.845 177.305V187.023C297.845 187.554 298.279 187.986 298.813 187.986H306.549V187.983Z" fill="url(#paint5_linear_3446_59)"/>
<path d="M347.009 169.164H377.228C377.762 169.164 378.196 169.596 378.196 170.127V175.381C378.196 175.912 377.762 176.344 377.228 176.344H357.142C356.608 176.344 356.175 176.776 356.175 177.308V185.019C356.175 185.551 356.608 185.983 357.142 185.983H375.086C375.619 185.983 376.053 186.415 376.053 186.946V192.2C376.053 192.731 375.619 193.163 375.086 193.163H357.142C356.608 193.163 356.175 193.595 356.175 194.126V203.002C356.175 203.533 356.608 203.965 357.142 203.965H377.878C378.411 203.965 378.845 204.398 378.845 204.929V210.183C378.845 210.714 378.411 211.146 377.878 211.146H347.009C346.476 211.146 346.042 210.714 346.042 210.183V170.133C346.042 169.602 346.476 169.169 347.009 169.169V169.164Z" fill="url(#paint6_linear_3446_59)"/>
<path d="M325.773 8.74374L304.877 40.7243H293.71L300.206 47.88L247.883 127.969C247.164 129.097 245.423 129.235 244.483 128.272L222.454 105.649C221.846 105.016 221.763 104.107 222.233 103.392L231.907 88.8327L216.567 60.8429L172.729 127.997C172.011 129.125 170.269 129.263 169.329 128.299L147.3 105.676C146.692 105.043 146.609 104.135 147.079 103.419L156.753 88.8603L141.413 60.8704L97.5478 128.024C96.8292 129.152 95.0878 129.29 94.1481 128.327L72.1188 105.704C71.5108 105.071 71.4278 104.162 71.8977 103.447L97.0227 65.5216L135.995 6.78968C136.382 6.21171 137.073 5.85393 137.792 5.85393H173.586C175.217 5.85393 176.24 7.4502 175.41 8.74374L163.249 27.3761L178.313 56.3017L211.177 6.76215C211.564 6.18419 212.255 5.82641 212.973 5.82641H248.767C250.398 5.82641 251.421 7.42268 250.592 8.71622L238.43 27.3486L253.494 56.3017L286.358 6.76215C286.745 6.18419 287.436 5.82641 288.155 5.82641H323.949C325.607 5.85393 326.602 7.4502 325.773 8.74374Z" fill="url(#paint7_linear_3446_59)" stroke="#3E066A" stroke-miterlimit="10"/>
<path d="M332.241 8.74374L311.345 40.7518H300.178L306.674 47.9075L254.351 127.997C253.632 129.125 251.891 129.263 250.951 128.299L228.922 105.676C228.314 105.043 228.231 104.135 228.701 103.419L238.375 88.8602L223.034 60.8704L179.197 128.024C178.478 129.152 176.737 129.29 175.797 128.327L153.768 105.704C153.16 105.071 153.077 104.162 153.547 103.447L163.221 88.8878L147.881 60.8979L104.016 128.052C103.297 129.18 101.556 129.318 100.616 128.354L78.5866 105.731C77.9785 105.098 77.8956 104.19 78.3655 103.474L103.49 65.6042L142.491 6.84472C142.878 6.26676 143.569 5.90897 144.287 5.90897H180.081C181.712 5.90897 182.735 7.50525 181.906 8.79878L169.744 27.4312L184.753 56.3017L217.617 6.76215C218.004 6.18419 218.695 5.82641 219.413 5.82641H255.208C256.838 5.82641 257.861 7.42268 257.032 8.71622L244.87 27.3486L259.962 56.3017L292.826 6.76215C293.213 6.18419 293.904 5.82641 294.622 5.82641H330.417C332.047 5.85393 333.07 7.4502 332.241 8.74374Z" fill="url(#paint8_linear_3446_59)" stroke="url(#paint9_linear_3446_59)" stroke-miterlimit="10"/>
<path d="M308.581 37.6143H292.494C292.024 37.6143 291.776 38.1097 292.052 38.44L300.51 47.9351C300.842 48.3204 300.869 48.8708 300.593 49.2836L295.092 57.0724L260.846 109.337C260.708 109.529 260.487 109.639 260.238 109.639C260.1 109.639 259.962 109.612 259.851 109.529C259.492 109.337 259.354 108.951 259.547 108.649L293.766 56.1917L298.603 49.0635C298.879 48.6506 298.851 48.1002 298.52 47.7424L289.371 37.6418L289.177 37.4217L288.873 37.0914C288.569 36.7611 288.818 36.2657 289.288 36.2382H308.415C308.664 36.2382 308.885 36.3758 308.995 36.5685C309.078 36.6786 309.106 36.7886 309.134 36.9263C309.189 37.284 308.94 37.5868 308.581 37.6143Z" fill="#380E68" stroke="#380D67" stroke-miterlimit="10"/>
<path d="M290.863 53.9348C290.504 53.7422 290.034 53.8523 289.841 54.1825L256.23 105.649C256.009 105.979 256.147 106.392 256.507 106.584C256.866 106.777 257.336 106.667 257.529 106.337L291.112 54.8706C291.333 54.5679 291.223 54.1275 290.863 53.9348Z" fill="#380D67" stroke="#380E68" stroke-miterlimit="10"/>
<path d="M255.65 109.887C256.871 109.887 257.861 108.963 257.861 107.823C257.861 106.683 256.871 105.759 255.65 105.759C254.429 105.759 253.439 106.683 253.439 107.823C253.439 108.963 254.429 109.887 255.65 109.887Z" fill="#380E68" stroke="#380E68" stroke-miterlimit="10"/>
<path d="M255.65 108.511C256.062 108.511 256.396 108.203 256.396 107.823C256.396 107.443 256.062 107.135 255.65 107.135C255.238 107.135 254.904 107.443 254.904 107.823C254.904 108.203 255.238 108.511 255.65 108.511Z" fill="url(#paint10_linear_3446_59)" stroke="#FD6072" stroke-miterlimit="10"/>
<path d="M238.596 16.2022C239.008 16.2022 239.342 15.8941 239.342 15.5141C239.342 15.1341 239.008 14.8261 238.596 14.8261C238.184 14.8261 237.85 15.1341 237.85 15.5141C237.85 15.8941 238.184 16.2022 238.596 16.2022Z" fill="url(#paint11_linear_3446_59)" stroke="url(#paint12_linear_3446_59)" stroke-miterlimit="10"/>
<path d="M97.4649 74.6864L102.274 81.2917C102.551 81.677 102.551 82.1724 102.274 82.5577L88.3436 101.988C88.0672 102.374 87.5697 102.566 87.0998 102.511L79.6923 101.41L78.7249 102.869L87.7632 104.273C88.2607 104.355 88.7859 104.162 89.0623 103.777L104.403 82.6128C104.679 82.2275 104.679 81.7321 104.403 81.3743L98.5705 73.0076L97.4649 74.6864Z" fill="#380E68" stroke="#380E68" stroke-miterlimit="10"/>
<path d="M114.16 82.3926L92.2133 112.859C91.9092 113.272 91.3288 113.465 90.9142 113.355L84.6951 111.814L82.7603 109.832C84.0318 110.107 88.0672 111.043 90.1126 111.456C90.6654 111.566 91.2182 111.373 91.5223 110.96L112.059 82.4476C112.308 82.0898 112.335 81.6495 112.087 81.2917L102.91 66.5674L103.96 64.9712L114.187 81.2642C114.436 81.622 114.408 82.0623 114.16 82.3926Z" fill="#380E68" stroke="#380E68" stroke-miterlimit="10"/>
<path d="M242.327 15.9462C242.327 17.0746 241.332 17.9829 240.116 17.9829C239.232 17.9829 238.458 17.4875 238.098 16.7444C235.998 16.7444 225.301 16.7169 225.301 16.7169C224.942 16.7169 224.61 16.882 224.389 17.1847L209.214 39.5601C209.076 39.7803 208.827 39.8904 208.579 39.8904C208.44 39.8904 208.302 39.8629 208.192 39.7803C207.832 39.5876 207.722 39.1748 207.943 38.8445L223.615 15.7811C223.642 15.7261 223.698 15.6985 223.725 15.6435C223.864 15.4784 224.085 15.3683 224.333 15.3408C224.333 15.3408 235.555 15.4233 238.015 15.4233C238.264 14.5151 239.121 13.8546 240.144 13.8546C241.332 13.8821 242.327 14.8178 242.327 15.9462Z" fill="#380E68" stroke="#380E68" stroke-miterlimit="10"/>
<path d="M240.837 15.9451C240.839 15.5651 240.506 15.2559 240.093 15.2546C239.681 15.2532 239.346 15.5602 239.345 15.9402C239.344 16.3202 239.677 16.6293 240.089 16.6307C240.501 16.632 240.836 16.3251 240.837 15.9451Z" fill="#9431A1" stroke="#9431A1" stroke-miterlimit="10"/>
<path d="M240.086 11.0996C240.086 11.4767 239.743 11.7739 239.284 11.7739H221.733C221.373 11.7739 221.042 11.939 220.848 12.2418C218.471 15.682 204.07 37.0116 204.07 37.0116C203.932 37.2317 203.684 37.3418 203.435 37.3418C203.297 37.3418 203.158 37.3143 203.048 37.2317C202.688 37.0391 202.578 36.5987 202.799 36.296L220.102 10.618C220.24 10.3978 220.516 10.2877 220.793 10.2877C220.82 10.2877 239.284 10.4253 239.284 10.4253C239.809 10.3978 240.086 10.5905 240.086 11.0033V11.0996Z" fill="#380E68" stroke="#380D67" stroke-miterlimit="10"/>
<defs>
<linearGradient id="paint0_linear_3446_59" x1="2.76404" y1="190.152" x2="378.845" y2="190.152" gradientUnits="userSpaceOnUse">
<stop stop-color="#D25F7A"/>
<stop offset="0.35" stop-color="#D25F7A"/>
<stop offset="0.45" stop-color="#CD5B7D"/>
<stop offset="0.57" stop-color="#BE5087"/>
<stop offset="0.69" stop-color="#A63E97"/>
<stop offset="0.75" stop-color="#9B35A0"/>
<stop offset="1" stop-color="#9631A3"/>
</linearGradient>
<linearGradient id="paint1_linear_3446_59" x1="2.76406" y1="190.152" x2="378.845" y2="190.152" gradientUnits="userSpaceOnUse">
<stop stop-color="#D25F7A"/>
<stop offset="0.35" stop-color="#D25F7A"/>
<stop offset="0.45" stop-color="#CD5B7D"/>
<stop offset="0.57" stop-color="#BE5087"/>
<stop offset="0.69" stop-color="#A63E97"/>
<stop offset="0.75" stop-color="#9B35A0"/>
<stop offset="1" stop-color="#9631A3"/>
</linearGradient>
<linearGradient id="paint2_linear_3446_59" x1="2.76408" y1="190.152" x2="378.845" y2="190.152" gradientUnits="userSpaceOnUse">
<stop stop-color="#D25F7A"/>
<stop offset="0.35" stop-color="#D25F7A"/>
<stop offset="0.45" stop-color="#CD5B7D"/>
<stop offset="0.57" stop-color="#BE5087"/>
<stop offset="0.69" stop-color="#A63E97"/>
<stop offset="0.75" stop-color="#9B35A0"/>
<stop offset="1" stop-color="#9631A3"/>
</linearGradient>
<linearGradient id="paint3_linear_3446_59" x1="2.76399" y1="190.152" x2="378.845" y2="190.152" gradientUnits="userSpaceOnUse">
<stop stop-color="#D25F7A"/>
<stop offset="0.35" stop-color="#D25F7A"/>
<stop offset="0.45" stop-color="#CD5B7D"/>
<stop offset="0.57" stop-color="#BE5087"/>
<stop offset="0.69" stop-color="#A63E97"/>
<stop offset="0.75" stop-color="#9B35A0"/>
<stop offset="1" stop-color="#9631A3"/>
</linearGradient>
<linearGradient id="paint4_linear_3446_59" x1="2.76415" y1="190.152" x2="378.845" y2="190.152" gradientUnits="userSpaceOnUse">
<stop stop-color="#D25F7A"/>
<stop offset="0.35" stop-color="#D25F7A"/>
<stop offset="0.45" stop-color="#CD5B7D"/>
<stop offset="0.57" stop-color="#BE5087"/>
<stop offset="0.69" stop-color="#A63E97"/>
<stop offset="0.75" stop-color="#9B35A0"/>
<stop offset="1" stop-color="#9631A3"/>
</linearGradient>
<linearGradient id="paint5_linear_3446_59" x1="2.76413" y1="190.152" x2="378.845" y2="190.152" gradientUnits="userSpaceOnUse">
<stop stop-color="#D25F7A"/>
<stop offset="0.35" stop-color="#D25F7A"/>
<stop offset="0.45" stop-color="#CD5B7D"/>
<stop offset="0.57" stop-color="#BE5087"/>
<stop offset="0.69" stop-color="#A63E97"/>
<stop offset="0.75" stop-color="#9B35A0"/>
<stop offset="1" stop-color="#9631A3"/>
</linearGradient>
<linearGradient id="paint6_linear_3446_59" x1="2.76386" y1="190.152" x2="378.845" y2="190.152" gradientUnits="userSpaceOnUse">
<stop stop-color="#D25F7A"/>
<stop offset="0.35" stop-color="#D25F7A"/>
<stop offset="0.45" stop-color="#CD5B7D"/>
<stop offset="0.57" stop-color="#BE5087"/>
<stop offset="0.69" stop-color="#A63E97"/>
<stop offset="0.75" stop-color="#9B35A0"/>
<stop offset="1" stop-color="#9631A3"/>
</linearGradient>
<linearGradient id="paint7_linear_3446_59" x1="167.464" y1="-60.0998" x2="235.71" y2="194.868" gradientUnits="userSpaceOnUse">
<stop offset="0.14" stop-color="#09030E"/>
<stop offset="0.18" stop-color="#1F0909"/>
<stop offset="0.23" stop-color="#661A00"/>
<stop offset="0.5" stop-color="#320C5C"/>
<stop offset="0.72" stop-color="#320C5C"/>
</linearGradient>
<linearGradient id="paint8_linear_3446_59" x1="201.174" y1="123.458" x2="207.397" y2="21.0126" gradientUnits="userSpaceOnUse">
<stop stop-color="#D05F7B"/>
<stop offset="0.25" stop-color="#CB5B7D"/>
<stop offset="0.52" stop-color="#BE5184"/>
<stop offset="0.8" stop-color="#A84093"/>
<stop offset="1" stop-color="#9431A1"/>
</linearGradient>
<linearGradient id="paint9_linear_3446_59" x1="200.461" y1="135.105" x2="208.773" y2="-1.70519" gradientUnits="userSpaceOnUse">
<stop stop-color="#FD726F"/>
<stop offset="0.18" stop-color="#F26A78"/>
<stop offset="0.48" stop-color="#D6558F"/>
<stop offset="0.87" stop-color="#A934B6"/>
<stop offset="1" stop-color="#9929C4"/>
</linearGradient>
<linearGradient id="paint10_linear_3446_59" x1="254.912" y1="107.823" x2="256.377" y2="107.823" gradientUnits="userSpaceOnUse">
<stop stop-color="#FD6072"/>
<stop offset="1" stop-color="#FD6072"/>
</linearGradient>
<linearGradient id="paint11_linear_3446_59" x1="237.855" y1="15.5141" x2="239.32" y2="15.5141" gradientUnits="userSpaceOnUse">
<stop stop-color="#A717CB"/>
<stop offset="0.36" stop-color="#A21FC1"/>
<stop offset="0.97" stop-color="#9436A4"/>
<stop offset="1" stop-color="#9337A3"/>
</linearGradient>
<linearGradient id="paint12_linear_3446_59" x1="237.717" y1="-209.982" x2="239.458" y2="-209.982" gradientUnits="userSpaceOnUse">
<stop stop-color="#A717CB"/>
<stop offset="0.36" stop-color="#A21FC1"/>
<stop offset="0.97" stop-color="#9436A4"/>
<stop offset="1" stop-color="#9337A3"/>
</linearGradient>
</defs>
</svg>
